<?xml version="1.0" standalone="no"?><!DOCTYPE svg PUBLIC "-//W3C//DTD SVG 1.1//EN" "http://www.w3.org/Graphics/SVG/1.1/DTD/svg11.dtd"><svg t="1589962419828" class="icon" viewBox="0 0 1024 1024" version="1.1" xmlns="http://www.w3.org/2000/svg" p-id="911" xmlns:xlink="http://www.w3.org/1999/xlink" width="200" height="200"><defs><style type="text/css"></style></defs><path d="M807 879.87H217a75.08 75.08 0 0 1-75-75v-590a75.09 75.09 0 0 1 75-75h590a75.09 75.09 0 0 1 75 75v590a75.08 75.08 0 0 1-75 75z m-590-670a5 5 0 0 0-5 5v590a5 5 0 0 0 5 5h590a5 5 0 0 0 5-5v-590a5 5 0 0 0-5-5z" p-id="912"></path><path d="M282 279.87m20 0l420 0q20 0 20 20l0 420q0 20-20 20l-420 0q-20 0-20-20l0-420q0-20 20-20Z" p-id="913"></path></svg>